<?xml version="1.0" encoding="UTF-8" standalone="no"?>
<svg width="30px" height="30px" viewBox="0 0 30 30" version="1.1" xmlns="http://www.w3.org/2000/svg" xmlns:xlink="http://www.w3.org/1999/xlink">
    <!-- Generator: Sketch 39.1 (31720) - http://www.bohemiancoding.com/sketch -->
    <title>brain</title>
    <desc>Created with Sketch.</desc>
    <defs></defs>
    <g id="avi.bio" stroke="none" stroke-width="1" fill="none" fill-rule="evenodd">
        <g id="brain" fill="#EEEEEE">
            <g id="brain-copy" transform="translate(1.500000, 0.000000)">
                <path d="M9.90653592,15.4446301 L9.90720242,15.4429702 C9.90053741,15.4399825 9.8938724,15.4373267 9.88720739,15.4346709 C9.88454139,15.433343 9.88187539,15.4323471 9.87920938,15.4310192 C8.71216633,14.8912301 7.39182808,14.8849226 6.23578229,15.3931742 C6.03216627,15.1325749 5.78822694,14.9031811 5.51129583,14.716612 C5.05074371,14.4085404 4.5155435,14.224959 3.96301427,14.1857861 L3.96301427,14.1887739 C3.948018,14.187778 3.93368823,14.1841263 3.91835871,14.1841263 C3.56911224,14.1841263 3.28584937,14.4663038 3.28584937,14.8145442 C3.28584937,15.1471817 3.54578471,15.4170763 3.87370315,15.4403144 L3.87370315,15.4429702 C4.20628709,15.4665404 4.52854027,15.5770876 4.80413839,15.7616649 C5.07940325,15.9475701 5.3023478,16.2035218 5.44864474,16.5022981 C5.59494169,16.8014063 5.66025877,17.1330479 5.63693124,17.4603739 C5.61227071,17.7916836 5.50096506,18.1130341 5.31467806,18.3885722 L5.31467806,18.3885722 L5.31467806,18.3889041 C5.24669497,18.4898241 5.20670492,18.6106625 5.20670492,18.7411282 C5.20670492,19.0893685 5.49030105,19.3712141 5.83954751,19.3712141 C6.05782655,19.3712141 6.25044531,19.2609989 6.36441696,19.0930202 C6.67367337,18.6358925 6.85862737,18.1034068 6.89961717,17.5510027 C6.9242777,17.2057502 6.89028616,16.8588377 6.80164154,16.5248723 C7.61677212,16.1899109 8.56087063,16.2031898 9.3673367,16.5826357 L9.3680032,16.5809758 C9.44998281,16.6194847 9.54096018,16.6430549 9.63760281,16.6430549 C9.98684928,16.6430549 10.2701122,16.3608773 10.2701122,16.0129689 C10.2697789,15.761001 10.1204827,15.5455501 9.90653592,15.4446301 L9.90653592,15.4446301 Z" id="Shape-Copy-7"></path>
                <path d="M22.5806057,13.6806329 L22.5779397,13.6806329 C22.5556119,13.352643 22.2840128,13.0930396 21.9494293,13.0930396 C21.5998496,13.0930396 21.3165868,13.3752172 21.3165868,13.7231256 C21.3165868,13.7377324 21.3202525,13.7513433 21.3212523,13.7659502 L21.318253,13.7659502 C21.3752388,14.5975441 21.0979745,15.4171869 20.5647738,16.0429572 C20.2741794,15.8563881 19.9529259,15.7179551 19.613677,15.6346297 C19.0741445,15.5054919 18.5096183,15.5187709 17.9797501,15.6731386 L17.9804166,15.6757944 C17.7178152,15.7524803 17.52453,15.9915013 17.52453,16.2779945 C17.52453,16.6262349 17.8077928,16.9084125 18.1570393,16.9084125 C18.2190239,16.9084125 18.2773427,16.8967934 18.3339953,16.8801947 L18.3346618,16.8828505 C18.652916,16.7905618 18.9931647,16.7825945 19.3137516,16.8592804 C19.635005,16.9382901 19.9309314,17.1019531 20.1705385,17.3326747 C20.4088125,17.5617365 20.5841023,17.8515495 20.6764127,18.1682523 C20.7683898,18.4909307 20.7743883,18.8315356 20.6940749,19.154214 L20.6960744,19.154878 C20.6837442,19.2033461 20.6754129,19.2538061 20.6754129,19.3062579 C20.6754129,19.6544983 20.9586758,19.9363439 21.3079222,19.9363439 C21.6045151,19.9363439 21.851787,19.7321801 21.9201033,19.4579699 L21.9221028,19.4583018 C21.9237691,19.4513304 21.9247688,19.4446909 21.9264351,19.4373875 C21.9271016,19.4347317 21.9277681,19.4320759 21.9284346,19.4294201 C22.0544032,18.902578 22.043406,18.3481821 21.89311,17.820344 C21.7997999,17.5003214 21.6558357,17.1988894 21.4702152,16.9260071 C22.252354,16.0439531 22.662252,14.8710903 22.5806057,13.6806329 L22.5806057,13.6806329 Z" id="Shape-Copy-8"></path>
                <path d="M26.8279937,16.5146917 C26.8279937,15.2664709 26.4990755,14.0477958 25.8745641,12.974525 C25.8775634,12.8938555 25.8792297,12.8128539 25.8792297,12.7321843 C25.8792297,10.2802271 24.5175683,8.09650465 22.361438,7.00563933 C22.385432,6.81508647 22.3990953,6.62254177 22.3990953,6.42900115 C22.3990953,4.79469501 21.5386426,3.31807635 20.1346585,2.50673281 C19.4594931,0.996252838 17.9392046,0 16.2612886,0 C15.0172647,0 14.0368419,0.506591746 13.4139968,1.40856408 C12.7911518,0.506591746 11.8107289,0 10.566705,0 C8.88878907,0 7.36850054,0.996252838 6.69333515,2.50673281 C5.28935103,3.31840832 4.42923164,4.79469501 4.42923164,6.42900115 C4.42923164,6.62254177 4.44289491,6.81508647 4.46688894,7.00563933 C2.31109182,8.09650465 0.949097262,10.2802271 0.949097262,12.7321843 C0.949097262,12.8128539 0.950430263,12.8938555 0.953762768,12.974525 C0.328918187,14.0474638 0,15.266139 0,16.5143598 C0,18.2187123 0.605182804,19.834428 1.71090777,21.1141863 C1.62592891,21.4637545 1.5816066,21.8229499 1.5816066,22.187125 C1.5816066,23.822759 2.47138529,25.3242757 3.87836866,26.1256601 C4.32825675,28.2924519 6.57603099,29.8776259 9.30135311,29.8776259 C11.113569,29.8776259 12.5792045,29.1326771 13.4139968,27.9103502 C14.2487892,29.1326771 15.7147579,29.8776259 17.5269738,29.8776259 C20.2519627,29.8776259 22.4997369,28.2924519 22.949625,26.126324 C24.3566084,25.3249397 25.2463871,23.823091 25.2463871,22.187789 C25.2463871,21.8232819 25.202398,21.4640865 25.1170859,21.1148502 C26.2231441,19.8347599 26.8279937,18.2190443 26.8279937,16.5146917 L26.8279937,16.5146917 Z M12.6548523,25.3392145 C12.6548523,27.1773525 11.3385131,28.3648221 9.30135311,28.3648221 C7.22386985,28.3648221 5.47730428,27.1332 5.32567533,25.5609729 L5.32567533,25.5609729 C5.32434233,25.5486899 5.32234282,25.5364069 5.32034332,25.5237919 C5.38666016,24.0727352 6.07548883,22.6077356 7.84571518,22.6077356 C8.89245482,22.6077356 9.7439097,23.4559282 9.7439097,24.4983254 C9.7439097,24.8465657 10.0271726,25.1287433 10.3767523,25.1287433 C10.726332,25.1287433 11.0095949,24.8462337 11.0095949,24.4983254 C11.0095949,23.4685432 10.5110522,22.552628 9.7419102,21.9769857 C10.5110522,21.4016754 11.0095949,20.4857602 11.0095949,19.4556461 C11.0095949,19.1074057 10.726332,18.8255601 10.3767523,18.8255601 C10.0271726,18.8255601 9.7439097,19.1077377 9.7439097,19.4556461 C9.7439097,20.4987072 8.89245482,21.3465678 7.84571518,21.3465678 C5.95951767,21.3465678 4.58852535,22.5705545 4.17762755,24.4973294 C3.50646116,23.9309824 3.10056212,23.0897613 3.10056212,22.187457 C3.10056212,21.847516 3.1572147,21.5145465 3.26752059,21.1975116 C3.30151214,21.1118624 3.32050741,21.0185779 3.32050741,20.9209776 C3.32050741,20.7101744 3.2338623,20.5196215 3.09389711,20.3825164 C2.07814976,19.3414471 1.51862227,17.9687362 1.51862227,16.5146917 C1.51862227,15.4683109 1.81221591,14.4491519 2.36807765,13.567098 L2.36741115,13.566766 C2.44105949,13.4502432 2.48438205,13.3128062 2.48438205,13.1650779 C2.48438205,13.1461554 2.48304905,13.1272329 2.4813828,13.1086424 L2.48171605,13.1086424 C2.47238504,12.9844843 2.46771953,12.8580023 2.46771953,12.7325163 C2.46771953,10.8332952 3.5357872,9.1442134 5.22136794,8.32125079 C5.74423789,9.08213433 6.52371067,9.56747977 7.57978133,9.79156196 C7.55178829,10.0893423 7.56445181,10.3914383 7.62177088,10.6875588 C7.72841102,11.2306676 7.9766826,11.7375913 8.33992559,12.1538863 L8.34192509,12.1522264 C8.45789624,12.2850158 8.62685422,12.370997 8.81747347,12.370997 C9.16671993,12.370997 9.44998281,12.0888194 9.44998281,11.7409111 C9.44998281,11.5825596 9.38933123,11.439811 9.2926886,11.3292638 L9.2946881,11.3276039 C9.07674232,11.0779597 8.92744612,10.772876 8.86379528,10.4475418 C8.80081095,10.1225397 8.82480498,9.78459052 8.93344462,9.47087544 C9.04241752,9.15583248 9.23203702,8.87498279 9.4809751,8.65986389 C9.73291244,8.44308511 10.0395028,8.2946929 10.3677545,8.23095397 L10.3677545,8.23062199 C10.6593487,8.17418648 10.879294,7.91923074 10.879294,7.61248711 C10.879294,7.26424678 10.5960311,6.9820692 10.2464514,6.9820692 C10.2047951,6.9820692 10.1644718,6.98671684 10.1251482,6.99435223 L10.1251482,6.99402025 C10.1238152,6.99435223 10.1228155,6.9946842 10.1214825,6.9946842 C10.119483,6.99501618 10.1174834,6.99568012 10.1151507,6.9960121 C9.57495173,7.1029076 9.06974406,7.34823611 8.6525145,7.70709959 C8.36691887,7.95475191 8.12964456,8.25286423 7.94935607,8.58384193 C6.98959479,8.40988775 6.41107202,7.99691256 6.06415831,7.25627942 C6.0594928,7.23901679 6.0548273,7.22208613 6.04916204,7.20548745 C5.98251195,6.95418342 5.94785391,6.6939161 5.94785391,6.43066102 C5.94785391,5.27340098 6.59469302,4.23432354 7.6357674,3.71943245 L7.63476765,3.71777259 C7.80739138,3.63145944 7.94202456,3.48140737 8.0083414,3.2984899 L8.0083414,3.2984899 C8.39724466,2.23119471 9.42532228,1.51413169 10.566705,1.51413169 C12.3835865,1.51413169 12.6548523,3.21217676 12.6548523,4.22469631 L12.6548523,25.3392145 L12.6548523,25.3392145 Z M23.7344298,20.3825164 C23.5944646,20.5196215 23.5078195,20.7101744 23.5078195,20.9209776 C23.5078195,21.0185779 23.5268148,21.1118624 23.5608063,21.1975116 C23.670779,21.5145465 23.7277648,21.847516 23.7277648,22.187457 C23.7277648,23.0897613 23.3215325,23.9309824 22.6506994,24.4973294 C22.2401348,22.5705545 20.8688092,21.3465678 18.9826117,21.3465678 C17.9358721,21.3465678 17.0844172,20.4983752 17.0844172,19.4556461 C17.0844172,19.1074057 16.8011543,18.8255601 16.4519079,18.8255601 C16.1026614,18.8255601 15.8193985,19.1077377 15.8193985,19.4556461 C15.8193985,20.4857602 16.3179412,21.4013434 17.0870832,21.9769857 C16.3179412,22.552296 15.8193985,23.4685432 15.8193985,24.4983254 C15.8193985,24.8465657 16.1026614,25.1287433 16.4519079,25.1287433 C16.8011543,25.1287433 17.0844172,24.8462337 17.0844172,24.4983254 C17.0844172,23.4555962 17.9362053,22.6077356 18.9826117,22.6077356 C20.7528381,22.6077356 21.4416668,24.0727352 21.5076503,25.5237919 C21.5059841,25.5364069 21.5036513,25.5486899 21.5023183,25.5609729 C21.3506894,27.1332 19.6044571,28.3648221 17.5266405,28.3648221 C15.4894806,28.3648221 14.1731413,27.1773525 14.1731413,25.3392145 L14.1731413,4.22303644 C14.1731413,3.21084887 14.4444072,1.51247182 16.2612886,1.51247182 C17.4026714,1.51247182 18.430749,2.22953484 18.8196523,3.29683003 L18.8199855,3.29683003 C18.8859691,3.4797475 19.0209355,3.6294676 19.1935593,3.71611272 L19.1925595,3.71810456 C20.2336339,4.23299565 20.8801398,5.27207308 20.8801398,6.42933312 C20.8801398,6.69225623 20.8454817,6.95252355 20.7791649,7.20382758 C20.7731664,7.22075824 20.7681676,7.23802087 20.7635021,7.25528349 C20.4165884,7.99558467 19.8380656,8.40855986 18.8786376,8.58251403 C18.6983491,8.25153633 18.4610748,7.95309205 18.1741462,7.70477578 C17.7582496,7.34690821 17.2530419,7.10191168 16.712843,6.9946842 C16.7108435,6.99435223 16.708844,6.99368828 16.7065112,6.99335631 C16.7051782,6.99335631 16.7038452,6.99302433 16.7025122,6.99269236 L16.7025122,6.99302433 C16.6631886,6.98538894 16.6228653,6.98074131 16.581209,6.98074131 C16.2319626,6.98074131 15.9486997,7.26291889 15.9486997,7.61115922 C15.9486997,7.91790284 16.1689782,8.17285858 16.4602391,8.2292941 L16.4602391,8.22962607 C16.7881576,8.29336501 17.094748,8.44175722 17.3453523,8.65754007 C17.5956234,8.87398687 17.7852429,9.15516853 17.8942158,9.46987952 C18.0028554,9.78392657 18.0268495,10.1215437 17.9641984,10.445218 C17.9002143,10.7718801 17.7505848,11.0769638 17.5326391,11.326608 L17.5349718,11.3282679 C17.4383292,11.4388151 17.3776776,11.5818957 17.3776776,11.7399151 C17.3776776,12.0878235 17.6612737,12.3700011 18.0101869,12.3700011 C18.2008062,12.3700011 18.3697642,12.2843519 18.4857353,12.1512305 L18.4880681,12.1528903 C18.8509778,11.7369274 19.0992494,11.2296717 19.2062228,10.685235 C19.2635419,10.3897784 19.2762054,10.0886784 19.2478791,9.79089801 C20.3039497,9.56681582 21.0837558,9.08113841 21.6062925,8.32025487 C23.2918732,9.14321748 24.3599409,10.8322993 24.3599409,12.7318523 C24.3599409,12.8573384 24.3549421,12.9841523 24.3459444,13.1079784 C24.3446114,13.126569 24.3432784,13.1454915 24.3432784,13.164414 C24.3432784,13.3121422 24.3862677,13.4495793 24.459916,13.566102 L24.4595828,13.566434 C25.0154445,14.4484879 25.3090381,15.4676469 25.3090381,16.5140278 C25.3093714,17.9687362 24.7501771,19.3417791 23.7344298,20.3825164 L23.7344298,20.3825164 Z" id="Shape-Copy-6"></path>
            </g>
        </g>
    </g>
</svg>