<?xml version="1.0" encoding="UTF-8"?>
<svg width="76px" height="76px" viewBox="0 0 76 76" version="1.1" xmlns="http://www.w3.org/2000/svg" xmlns:xlink="http://www.w3.org/1999/xlink">
    <!-- Generator: Sketch 44.1 (41455) - http://www.bohemiancoding.com/sketch -->
    <title>noun_849687_cc</title>
    <desc>Created with Sketch.</desc>
    <defs></defs>
    <g id="Page-1" stroke="none" stroke-width="1" fill="none" fill-rule="evenodd">
        <g id="noun_849687_cc" fill-rule="nonzero" fill="#EEEEEE">
            <g id="Group">
                <path d="M33.4,35.1 L27.3,41.3 C25.5,43.1 22.5,43.1 20.7,41.3 C18.9,39.5 18.9,36.5 20.7,34.7 L34.6,20.6 C35.5,19.7 36.7,19.2 37.9,19.2 C39.1,19.2 40.3,19.7 41.2,20.6 L55.4,34.7 C57.4,36.7 57.2,40.1 54.8,41.8 C52.9,43.2 50.2,42.8 48.6,41.1 L43.3,35.9 L42.7,35.8 L42.7,40.4 L42.7,52.2 C42.7,54.8 40.6,56.8 38.1,56.8 L38,56.8 C35.4,56.8 33.4,54.7 33.4,52.2 L33.4,35.1 Z" id="Shape"></path>
                <path d="M38,75.5 C58.7,75.5 75.5,58.7 75.5,38 C75.5,17.3 58.8,0.5 38,0.5 C17.2,0.5 0.5,17.3 0.5,38 C0.5,58.7 17.3,75.5 38,75.5 Z M38,9.9 C53.5,9.9 66.1,22.5 66.1,38 C66.1,53.5 53.6,66.1 38,66.1 C22.4,66.1 9.9,53.5 9.9,38 C9.9,22.5 22.5,9.9 38,9.9 Z" id="Shape"></path>
            </g>
        </g>
    </g>
</svg>